<mxfile host="Electron" modified="2023-12-20T01:36:39.821Z" agent="Mozilla/5.0 (Macintosh; Intel Mac OS X 10_15_7) AppleWebKit/537.36 (KHTML, like Gecko) draw.io/22.1.11 Chrome/114.0.5735.289 Electron/25.9.8 Safari/537.36" etag="2KwTznpoCmbDktFWK2Xi" version="22.1.11" type="device">
  <diagram name="Page-1" id="jXvsryyb3UmiHooYGOhE">
    <mxGraphModel dx="2744" dy="1105" grid="1" gridSize="10" guides="1" tooltips="1" connect="1" arrows="1" fold="1" page="1" pageScale="1" pageWidth="827" pageHeight="1169" math="0" shadow="0">
      <root>
        <mxCell id="0" />
        <mxCell id="1" parent="0" />
        <mxCell id="ihcr16-gCB5XnlM_b9zv-41" value="" style="rounded=0;whiteSpace=wrap;html=1;dashed=1;" vertex="1" parent="1">
          <mxGeometry x="-270" y="1000" width="1060" height="240" as="geometry" />
        </mxCell>
        <mxCell id="ihcr16-gCB5XnlM_b9zv-39" value="" style="rounded=0;whiteSpace=wrap;html=1;dashed=1;" vertex="1" parent="1">
          <mxGeometry x="-270" y="500" width="1060" height="480" as="geometry" />
        </mxCell>
        <mxCell id="ihcr16-gCB5XnlM_b9zv-4" style="edgeStyle=orthogonalEdgeStyle;rounded=0;orthogonalLoop=1;jettySize=auto;html=1;" edge="1" parent="1" source="ihcr16-gCB5XnlM_b9zv-2" target="ihcr16-gCB5XnlM_b9zv-3">
          <mxGeometry relative="1" as="geometry" />
        </mxCell>
        <mxCell id="ihcr16-gCB5XnlM_b9zv-10" style="edgeStyle=orthogonalEdgeStyle;rounded=0;orthogonalLoop=1;jettySize=auto;html=1;" edge="1" parent="1" source="ihcr16-gCB5XnlM_b9zv-2" target="ihcr16-gCB5XnlM_b9zv-9">
          <mxGeometry relative="1" as="geometry" />
        </mxCell>
        <mxCell id="ihcr16-gCB5XnlM_b9zv-12" style="edgeStyle=orthogonalEdgeStyle;rounded=0;orthogonalLoop=1;jettySize=auto;html=1;" edge="1" parent="1" source="ihcr16-gCB5XnlM_b9zv-2" target="ihcr16-gCB5XnlM_b9zv-11">
          <mxGeometry relative="1" as="geometry" />
        </mxCell>
        <mxCell id="ihcr16-gCB5XnlM_b9zv-16" style="edgeStyle=orthogonalEdgeStyle;rounded=0;orthogonalLoop=1;jettySize=auto;html=1;" edge="1" parent="1" source="ihcr16-gCB5XnlM_b9zv-2" target="ihcr16-gCB5XnlM_b9zv-15">
          <mxGeometry relative="1" as="geometry" />
        </mxCell>
        <mxCell id="ihcr16-gCB5XnlM_b9zv-20" style="edgeStyle=orthogonalEdgeStyle;rounded=0;orthogonalLoop=1;jettySize=auto;html=1;" edge="1" parent="1" source="ihcr16-gCB5XnlM_b9zv-2" target="ihcr16-gCB5XnlM_b9zv-17">
          <mxGeometry relative="1" as="geometry" />
        </mxCell>
        <mxCell id="ihcr16-gCB5XnlM_b9zv-21" style="edgeStyle=orthogonalEdgeStyle;rounded=0;orthogonalLoop=1;jettySize=auto;html=1;" edge="1" parent="1" source="ihcr16-gCB5XnlM_b9zv-2" target="ihcr16-gCB5XnlM_b9zv-19">
          <mxGeometry relative="1" as="geometry" />
        </mxCell>
        <mxCell id="ihcr16-gCB5XnlM_b9zv-2" value="" style="ellipse;whiteSpace=wrap;html=1;aspect=fixed;fillColor=#000000;" vertex="1" parent="1">
          <mxGeometry x="340" y="410" width="80" height="80" as="geometry" />
        </mxCell>
        <mxCell id="ihcr16-gCB5XnlM_b9zv-7" style="edgeStyle=orthogonalEdgeStyle;rounded=0;orthogonalLoop=1;jettySize=auto;html=1;" edge="1" parent="1" source="ihcr16-gCB5XnlM_b9zv-3" target="ihcr16-gCB5XnlM_b9zv-6">
          <mxGeometry relative="1" as="geometry" />
        </mxCell>
        <mxCell id="ihcr16-gCB5XnlM_b9zv-3" value="Fork encrypted-control-planes repo" style="rounded=0;whiteSpace=wrap;html=1;" vertex="1" parent="1">
          <mxGeometry x="320" y="540" width="120" height="60" as="geometry" />
        </mxCell>
        <mxCell id="ihcr16-gCB5XnlM_b9zv-5" value="&lt;b&gt;Start&lt;/b&gt;" style="text;html=1;strokeColor=none;fillColor=none;align=center;verticalAlign=middle;whiteSpace=wrap;rounded=0;" vertex="1" parent="1">
          <mxGeometry x="380" y="380" width="60" height="30" as="geometry" />
        </mxCell>
        <mxCell id="ihcr16-gCB5XnlM_b9zv-14" style="edgeStyle=orthogonalEdgeStyle;rounded=0;orthogonalLoop=1;jettySize=auto;html=1;" edge="1" parent="1" source="ihcr16-gCB5XnlM_b9zv-6" target="ihcr16-gCB5XnlM_b9zv-13">
          <mxGeometry relative="1" as="geometry" />
        </mxCell>
        <mxCell id="ihcr16-gCB5XnlM_b9zv-6" value="Clone repo" style="rounded=0;whiteSpace=wrap;html=1;" vertex="1" parent="1">
          <mxGeometry x="320" y="640" width="120" height="60" as="geometry" />
        </mxCell>
        <mxCell id="ihcr16-gCB5XnlM_b9zv-31" style="edgeStyle=orthogonalEdgeStyle;rounded=0;orthogonalLoop=1;jettySize=auto;html=1;" edge="1" parent="1" source="ihcr16-gCB5XnlM_b9zv-9" target="ihcr16-gCB5XnlM_b9zv-30">
          <mxGeometry relative="1" as="geometry" />
        </mxCell>
        <mxCell id="ihcr16-gCB5XnlM_b9zv-9" value="Provision OpenShift Cluster" style="rounded=0;whiteSpace=wrap;html=1;" vertex="1" parent="1">
          <mxGeometry x="480" y="540" width="120" height="60" as="geometry" />
        </mxCell>
        <mxCell id="ihcr16-gCB5XnlM_b9zv-47" style="edgeStyle=orthogonalEdgeStyle;rounded=0;orthogonalLoop=1;jettySize=auto;html=1;" edge="1" parent="1" source="ihcr16-gCB5XnlM_b9zv-11" target="ihcr16-gCB5XnlM_b9zv-44">
          <mxGeometry relative="1" as="geometry">
            <Array as="points">
              <mxPoint x="700" y="970" />
              <mxPoint x="540" y="970" />
            </Array>
          </mxGeometry>
        </mxCell>
        <mxCell id="ihcr16-gCB5XnlM_b9zv-11" value="Provision&lt;br&gt;CipherTrust&lt;br&gt;Manager" style="rounded=0;whiteSpace=wrap;html=1;" vertex="1" parent="1">
          <mxGeometry x="640" y="540" width="120" height="60" as="geometry" />
        </mxCell>
        <mxCell id="ihcr16-gCB5XnlM_b9zv-32" style="edgeStyle=orthogonalEdgeStyle;rounded=0;orthogonalLoop=1;jettySize=auto;html=1;" edge="1" parent="1" source="ihcr16-gCB5XnlM_b9zv-13">
          <mxGeometry relative="1" as="geometry">
            <mxPoint x="380" y="840" as="targetPoint" />
          </mxGeometry>
        </mxCell>
        <mxCell id="ihcr16-gCB5XnlM_b9zv-13" value="Fill out secrets file with mandatory secrets" style="rounded=0;whiteSpace=wrap;html=1;" vertex="1" parent="1">
          <mxGeometry x="320" y="740" width="120" height="60" as="geometry" />
        </mxCell>
        <mxCell id="ihcr16-gCB5XnlM_b9zv-25" style="edgeStyle=orthogonalEdgeStyle;rounded=0;orthogonalLoop=1;jettySize=auto;html=1;entryX=0;entryY=0.5;entryDx=0;entryDy=0;" edge="1" parent="1" source="ihcr16-gCB5XnlM_b9zv-15" target="ihcr16-gCB5XnlM_b9zv-13">
          <mxGeometry relative="1" as="geometry">
            <Array as="points">
              <mxPoint x="220" y="770" />
            </Array>
          </mxGeometry>
        </mxCell>
        <mxCell id="ihcr16-gCB5XnlM_b9zv-15" value="Get&amp;nbsp; OCP pull secret" style="rounded=0;whiteSpace=wrap;html=1;" vertex="1" parent="1">
          <mxGeometry x="160" y="540" width="120" height="60" as="geometry" />
        </mxCell>
        <mxCell id="ihcr16-gCB5XnlM_b9zv-26" style="edgeStyle=orthogonalEdgeStyle;rounded=0;orthogonalLoop=1;jettySize=auto;html=1;entryX=0;entryY=0.5;entryDx=0;entryDy=0;" edge="1" parent="1" source="ihcr16-gCB5XnlM_b9zv-17" target="ihcr16-gCB5XnlM_b9zv-13">
          <mxGeometry relative="1" as="geometry">
            <Array as="points">
              <mxPoint x="60" y="770" />
            </Array>
          </mxGeometry>
        </mxCell>
        <mxCell id="ihcr16-gCB5XnlM_b9zv-17" value="Get AAP manifest file" style="rounded=0;whiteSpace=wrap;html=1;" vertex="1" parent="1">
          <mxGeometry y="540" width="120" height="60" as="geometry" />
        </mxCell>
        <mxCell id="ihcr16-gCB5XnlM_b9zv-27" style="edgeStyle=orthogonalEdgeStyle;rounded=0;orthogonalLoop=1;jettySize=auto;html=1;entryX=0;entryY=0.5;entryDx=0;entryDy=0;" edge="1" parent="1" source="ihcr16-gCB5XnlM_b9zv-19" target="ihcr16-gCB5XnlM_b9zv-13">
          <mxGeometry relative="1" as="geometry">
            <Array as="points">
              <mxPoint x="-90" y="770" />
            </Array>
          </mxGeometry>
        </mxCell>
        <mxCell id="ihcr16-gCB5XnlM_b9zv-19" value="Get docker.io pull secret" style="rounded=0;whiteSpace=wrap;html=1;" vertex="1" parent="1">
          <mxGeometry x="-150" y="540" width="120" height="60" as="geometry" />
        </mxCell>
        <mxCell id="ihcr16-gCB5XnlM_b9zv-34" style="edgeStyle=orthogonalEdgeStyle;rounded=0;orthogonalLoop=1;jettySize=auto;html=1;entryX=1;entryY=0.5;entryDx=0;entryDy=0;" edge="1" parent="1" source="ihcr16-gCB5XnlM_b9zv-30" target="ihcr16-gCB5XnlM_b9zv-33">
          <mxGeometry relative="1" as="geometry" />
        </mxCell>
        <mxCell id="ihcr16-gCB5XnlM_b9zv-30" value="login to oc" style="rounded=0;whiteSpace=wrap;html=1;" vertex="1" parent="1">
          <mxGeometry x="480" y="840" width="120" height="60" as="geometry" />
        </mxCell>
        <mxCell id="ihcr16-gCB5XnlM_b9zv-45" style="edgeStyle=orthogonalEdgeStyle;rounded=0;orthogonalLoop=1;jettySize=auto;html=1;" edge="1" parent="1" source="ihcr16-gCB5XnlM_b9zv-33" target="ihcr16-gCB5XnlM_b9zv-43">
          <mxGeometry relative="1" as="geometry" />
        </mxCell>
        <mxCell id="ihcr16-gCB5XnlM_b9zv-49" style="edgeStyle=orthogonalEdgeStyle;rounded=0;orthogonalLoop=1;jettySize=auto;html=1;" edge="1" parent="1" source="ihcr16-gCB5XnlM_b9zv-33" target="ihcr16-gCB5XnlM_b9zv-48">
          <mxGeometry relative="1" as="geometry">
            <Array as="points">
              <mxPoint x="380" y="960" />
              <mxPoint x="240" y="960" />
            </Array>
          </mxGeometry>
        </mxCell>
        <mxCell id="ihcr16-gCB5XnlM_b9zv-33" value="./pattern.sh make install" style="rounded=0;whiteSpace=wrap;html=1;" vertex="1" parent="1">
          <mxGeometry x="320" y="840" width="120" height="60" as="geometry" />
        </mxCell>
        <mxCell id="ihcr16-gCB5XnlM_b9zv-40" value="&lt;b&gt;Initial install&lt;/b&gt;" style="text;html=1;strokeColor=none;fillColor=none;align=center;verticalAlign=middle;whiteSpace=wrap;rounded=0;" vertex="1" parent="1">
          <mxGeometry x="-270" y="500" width="120" height="30" as="geometry" />
        </mxCell>
        <mxCell id="ihcr16-gCB5XnlM_b9zv-42" value="&lt;b&gt;Setup cluster templates&lt;/b&gt;" style="text;html=1;strokeColor=none;fillColor=none;align=center;verticalAlign=middle;whiteSpace=wrap;rounded=0;" vertex="1" parent="1">
          <mxGeometry x="-270" y="1000" width="160" height="30" as="geometry" />
        </mxCell>
        <mxCell id="ihcr16-gCB5XnlM_b9zv-52" style="edgeStyle=orthogonalEdgeStyle;rounded=0;orthogonalLoop=1;jettySize=auto;html=1;" edge="1" parent="1" source="ihcr16-gCB5XnlM_b9zv-43" target="ihcr16-gCB5XnlM_b9zv-50">
          <mxGeometry relative="1" as="geometry" />
        </mxCell>
        <mxCell id="ihcr16-gCB5XnlM_b9zv-43" value="Setup required infrastructure secrets (e.g. s3 / aws / AAP)" style="rounded=0;whiteSpace=wrap;html=1;" vertex="1" parent="1">
          <mxGeometry x="320" y="1030" width="120" height="60" as="geometry" />
        </mxCell>
        <mxCell id="ihcr16-gCB5XnlM_b9zv-53" style="edgeStyle=orthogonalEdgeStyle;rounded=0;orthogonalLoop=1;jettySize=auto;html=1;" edge="1" parent="1" source="ihcr16-gCB5XnlM_b9zv-44" target="ihcr16-gCB5XnlM_b9zv-50">
          <mxGeometry relative="1" as="geometry">
            <Array as="points">
              <mxPoint x="540" y="1130" />
              <mxPoint x="380" y="1130" />
            </Array>
          </mxGeometry>
        </mxCell>
        <mxCell id="ihcr16-gCB5XnlM_b9zv-44" value="Configure CipherTrust registration token" style="rounded=0;whiteSpace=wrap;html=1;" vertex="1" parent="1">
          <mxGeometry x="480" y="1030" width="120" height="60" as="geometry" />
        </mxCell>
        <mxCell id="ihcr16-gCB5XnlM_b9zv-51" style="edgeStyle=orthogonalEdgeStyle;rounded=0;orthogonalLoop=1;jettySize=auto;html=1;" edge="1" parent="1" source="ihcr16-gCB5XnlM_b9zv-48" target="ihcr16-gCB5XnlM_b9zv-50">
          <mxGeometry relative="1" as="geometry">
            <Array as="points">
              <mxPoint x="240" y="1130" />
              <mxPoint x="380" y="1130" />
            </Array>
          </mxGeometry>
        </mxCell>
        <mxCell id="ihcr16-gCB5XnlM_b9zv-48" value="Day2 AAP configuration of inventory" style="rounded=0;whiteSpace=wrap;html=1;" vertex="1" parent="1">
          <mxGeometry x="180" y="1030" width="120" height="60" as="geometry" />
        </mxCell>
        <mxCell id="ihcr16-gCB5XnlM_b9zv-55" style="edgeStyle=orthogonalEdgeStyle;rounded=0;orthogonalLoop=1;jettySize=auto;html=1;" edge="1" parent="1" source="ihcr16-gCB5XnlM_b9zv-50" target="ihcr16-gCB5XnlM_b9zv-54">
          <mxGeometry relative="1" as="geometry" />
        </mxCell>
        <mxCell id="ihcr16-gCB5XnlM_b9zv-50" value="Configure cluster template helm charts" style="rounded=0;whiteSpace=wrap;html=1;" vertex="1" parent="1">
          <mxGeometry x="320" y="1150" width="120" height="60" as="geometry" />
        </mxCell>
        <mxCell id="ihcr16-gCB5XnlM_b9zv-54" value="" style="ellipse;whiteSpace=wrap;html=1;aspect=fixed;fillColor=#000000;" vertex="1" parent="1">
          <mxGeometry x="340" y="1270" width="80" height="80" as="geometry" />
        </mxCell>
        <mxCell id="ihcr16-gCB5XnlM_b9zv-56" value="&lt;b&gt;Ready to&amp;nbsp;&lt;/b&gt;" style="text;html=1;strokeColor=none;fillColor=none;align=center;verticalAlign=middle;whiteSpace=wrap;rounded=0;" vertex="1" parent="1">
          <mxGeometry x="400" y="1250" width="160" height="30" as="geometry" />
        </mxCell>
      </root>
    </mxGraphModel>
  </diagram>
</mxfile>
